<?xml version="1.0" encoding="UTF-8"?>
<svg version="1.1" xmlns="http://www.w3.org/2000/svg" width="377" height="18">
<path d="M0 0 C124.41 0 248.82 0 377 0 C377 5.94 377 11.88 377 18 C252.59 18 128.18 18 0 18 C0 12.06 0 6.12 0 0 Z " fill="#F6F7F7" transform="translate(0,0)"/>
<path d="M0 0 C44.22 0 88.44 0 134 0 C134 5.28 134 10.56 134 16 C136.31 16 138.62 16 141 16 C141.33 11.38 141.66 6.76 142 2 C142.33 2 142.66 2 143 2 C143.19441368 4.2910905 143.38033135 6.58290337 143.5625 8.875 C143.66691406 10.15117187 143.77132812 11.42734375 143.87890625 12.7421875 C144 16 144 16 143 18 C95.81 18 48.62 18 0 18 C0 12.06 0 6.12 0 0 Z " fill="#F7F8F7" transform="translate(0,0)"/>
<path d="M0 0 C21.45 0 42.9 0 65 0 C65 5.28 65 10.56 65 16 C67.31 16 69.62 16 72 16 C72.33 11.38 72.66 6.76 73 2 C73.33 2 73.66 2 74 2 C74.19441368 4.2910905 74.38033135 6.58290337 74.5625 8.875 C74.71912109 10.78925781 74.71912109 10.78925781 74.87890625 12.7421875 C75 16 75 16 74 18 C49.25 18 24.5 18 -1 18 C-0.505 9.09 -0.505 9.09 0 0 Z " fill="#F6F8FA" transform="translate(69,0)"/>
<path d="M0 0 C15.18 0 30.36 0 46 0 C46 5.28 46 10.56 46 16 C42.30841682 18.46105545 39.53376446 18.25575793 35.26953125 18.1953125 C34.51911057 18.1924826 33.76868988 18.18965271 32.99552917 18.18673706 C30.60102325 18.17555062 28.20689269 18.15044928 25.8125 18.125 C24.18815645 18.11496819 22.56380703 18.10584269 20.93945312 18.09765625 C16.959491 18.07561637 12.97980912 18.0410974 9 18 C9 17.01 9 16.02 9 15 C8.34 15.66 7.68 16.32 7 17 C4.84521484 17.22705078 4.84521484 17.22705078 2.2109375 17.1953125 C1.26992187 17.18886719 0.32890625 17.18242187 -0.640625 17.17578125 C-1.62546875 17.15902344 -2.6103125 17.14226563 -3.625 17.125 C-4.61757812 17.11597656 -5.61015625 17.10695313 -6.6328125 17.09765625 C-9.08878134 17.07404116 -11.54427168 17.04110799 -14 17 C-14 16.67 -14 16.34 -14 16 C-9.38 16 -4.76 16 0 16 C0 10.72 0 5.44 0 0 Z " fill="#F4F8F9" transform="translate(134,0)"/>
<path d="M0 0 C13.2 0 26.4 0 40 0 C40 5.28 40 10.56 40 16 C55.84 16.495 55.84 16.495 72 17 C72 17.33 72 17.66 72 18 C47.25 18 22.5 18 -3 18 C-2.67 17.34 -2.34 16.68 -2 16 C-1.34 16 -0.68 16 0 16 C0 10.72 0 5.44 0 0 Z " fill="#FAFAF7" transform="translate(180,0)"/>
<path d="M0 0 C11.88 0 23.76 0 36 0 C36 12 36 12 34 17 C29.33694962 17.07405887 24.67424016 17.12855763 20.01074219 17.16479492 C18.42376749 17.17989814 16.83683463 17.20038223 15.25 17.22631836 C12.97124927 17.26263595 10.69304942 17.27971023 8.4140625 17.29296875 C7.70255035 17.30845261 6.99103821 17.32393646 6.25796509 17.33988953 C4.25634766 17.34057617 4.25634766 17.34057617 1 17 C-1.13586678 13.79619983 -1.23132175 12.98060033 -1.125 9.3125 C-1.10695313 8.50425781 -1.08890625 7.69601563 -1.0703125 6.86328125 C-1.04710937 6.24839844 -1.02390625 5.63351563 -1 5 C0.98 5 2.96 5 5 5 C4.34 4.01 3.68 3.02 3 2 C2.34 2 1.68 2 1 2 C0.34 2.66 -0.32 3.32 -1 4 C-0.67 2.68 -0.34 1.36 0 0 Z " fill="#F7F7F7" transform="translate(258,0)"/>
<path d="M0 0 C7.92 0 15.84 0 24 0 C24 5.28 24 10.56 24 16 C26.31 16 28.62 16 31 16 C31.33 11.38 31.66 6.76 32 2 C32.33 2 32.66 2 33 2 C33.19441368 4.2910905 33.38033135 6.58290337 33.5625 8.875 C33.71912109 10.78925781 33.71912109 10.78925781 33.87890625 12.7421875 C34 16 34 16 33 18 C22.44 18 11.88 18 1 18 C-0.22963633 11.85181836 -0.063328 6.26947191 0 0 Z " fill="#F2F7F8" transform="translate(110,0)"/>
<path d="M0 0 C3.12505696 -0.02688864 6.24988425 -0.04678462 9.375 -0.0625 C10.70917969 -0.07506836 10.70917969 -0.07506836 12.0703125 -0.08789062 C13.34648437 -0.09272461 13.34648437 -0.09272461 14.6484375 -0.09765625 C15.43395996 -0.10289307 16.21948242 -0.10812988 17.02880859 -0.11352539 C19 0 19 0 21 1 C20.67 1.66 20.34 2.32 20 3 C20.495 3.495 20.495 3.495 21 4 C22.0013988 7.00419641 22.51421457 9.87709365 23 13 C23.63808594 13.12117187 24.27617187 13.24234375 24.93359375 13.3671875 C26.17302734 13.61855469 26.17302734 13.61855469 27.4375 13.875 C28.26121094 14.03742187 29.08492187 14.19984375 29.93359375 14.3671875 C30.95646484 14.68042969 30.95646484 14.68042969 32 15 C32.495 15.99 32.495 15.99 33 17 C25.08 17.33 17.16 17.66 9 18 C9 17.01 9 16.02 9 15 C8.34 15.66 7.68 16.32 7 17 C4.84521484 17.22705078 4.84521484 17.22705078 2.2109375 17.1953125 C1.26992187 17.18886719 0.32890625 17.18242187 -0.640625 17.17578125 C-1.62546875 17.15902344 -2.6103125 17.14226563 -3.625 17.125 C-4.61757812 17.11597656 -5.61015625 17.10695313 -6.6328125 17.09765625 C-9.08878134 17.07404116 -11.54427168 17.04110799 -14 17 C-14 16.67 -14 16.34 -14 16 C-9.38 16 -4.76 16 0 16 C0 10.72 0 5.44 0 0 Z " fill="#F8FBFA" transform="translate(134,0)"/>
<path d="M0 0 C3.43796837 -0.08078777 6.87404727 -0.14039791 10.3125 -0.1875 C11.28896484 -0.21263672 12.26542969 -0.23777344 13.27148438 -0.26367188 C14.20927734 -0.27333984 15.14707031 -0.28300781 16.11328125 -0.29296875 C16.97735596 -0.3086792 17.84143066 -0.32438965 18.73168945 -0.34057617 C21 0 21 0 22.81713867 1.36206055 C24 3 24 3 23.8125 5.5 C23 8 23 8 21 11 C20.773125 10.38125 20.54625 9.7625 20.3125 9.125 C18.60426581 6.3592875 17.06061498 5.91818449 14 5 C13.34 5 12.68 5 12 5 C11.67 6.65 11.34 8.3 11 10 C10.67 8.68 10.34 7.36 10 6 C9.34 6 8.68 6 8 6 C8.33 7.98 8.66 9.96 9 12 C9.99 12 10.98 12 12 12 C12.33 10.35 12.66 8.7 13 7 C13.33 7 13.66 7 14 7 C14 8.65 14 10.3 14 12 C17.3 12.33 20.6 12.66 24 13 C23.34 14.32 22.68 15.64 22 17 C11.11 17.495 11.11 17.495 0 18 C0 12.06 0 6.12 0 0 Z " fill="#F3F4F5" transform="translate(0,0)"/>
<path d="M0 0 C9.9 0 19.8 0 30 0 C30.33 1.32 30.66 2.64 31 4 C31.66 4.33 32.32 4.66 33 5 C33 5.99 33 6.98 33 8 C30.69 8.33 28.38 8.66 26 9 C26.99 9.33 27.98 9.66 29 10 C28.67 10.99 28.34 11.98 28 13 C25.1875 13.625 25.1875 13.625 22 14 C21.01 13.34 20.02 12.68 19 12 C15.85778033 12.31506627 15.85778033 12.31506627 13 13 C12.67 11.02 12.34 9.04 12 7 C11.67 8.98 11.34 10.96 11 13 C8.69 13 6.38 13 4 13 C4.66 12.67 5.32 12.34 6 12 C5.67 11.401875 5.34 10.80375 5 10.1875 C4 8 4 8 4 5 C4.804375 4.87625 5.60875 4.7525 6.4375 4.625 C7.283125 4.41875 8.12875 4.2125 9 4 C9.33 3.34 9.66 2.68 10 2 C6.7 1.67 3.4 1.34 0 1 C0 0.67 0 0.34 0 0 Z " fill="#F5F5F5" transform="translate(340,0)"/>
<path d="M0 0 C3.96 0 7.92 0 12 0 C12 5.94 12 11.88 12 18 C1.44 18 -9.12 18 -20 18 C-20 17.67 -20 17.34 -20 17 C-13.07 17 -6.14 17 1 17 C1.33 16.01 1.66 15.02 2 14 C1.36191406 13.87882813 0.72382813 13.75765625 0.06640625 13.6328125 C-0.75988281 13.46523437 -1.58617188 13.29765625 -2.4375 13.125 C-3.26121094 12.96257813 -4.08492187 12.80015625 -4.93359375 12.6328125 C-5.61550781 12.42398437 -6.29742187 12.21515625 -7 12 C-7.33 11.34 -7.66 10.68 -8 10 C-8.33 10.66 -8.66 11.32 -9 12 C-9.99 12 -10.98 12 -12 12 C-12.33 10.02 -12.66 8.04 -13 6 C-12.01 6.33 -11.02 6.66 -10 7 C-9.01 6.01 -8.02 5.02 -7 4 C-4.69 4.66 -2.38 5.32 0 6 C0 6.99 0 7.98 0 9 C1.50930183 5.6136749 1.50930183 5.6136749 2 2 C1.34 1.34 0.68 0.68 0 0 Z " fill="#F0EEEF" transform="translate(21,0)"/>
<path d="M0 0 C1.32 0 2.64 0 4 0 C4 1.32 4 2.64 4 4 C5.98 4.66 7.96 5.32 10 6 C10 7.32 10 8.64 10 10 C11.65 10 13.3 10 15 10 C15 12.31 15 14.62 15 17 C8.73 17 2.46 17 -4 17 C-3.01 16.67 -2.02 16.34 -1 16 C-1 14.68 -1 13.36 -1 12 C-5.53701494 10.54815522 -9.18061476 9.76490804 -14 10 C-14 8.35 -14 6.7 -14 5 C-13.41992188 5.01160156 -12.83984375 5.02320313 -12.2421875 5.03515625 C-7.7001754 5.08762174 -3.47286431 4.91751063 1 4 C0.67 2.68 0.34 1.36 0 0 Z " fill="#FAF8EA" transform="translate(201,0)"/>
<path d="M0 0 C4.29 0 8.58 0 13 0 C13 0.99 13 1.98 13 3 C12.34 3 11.68 3 11 3 C10.83266843 4.4790916 10.66615314 5.95827556 10.5 7.4375 C10.4071875 8.26121094 10.314375 9.08492187 10.21875 9.93359375 C10.05543721 11.4639499 10.05543721 11.4639499 10 13 C10.63808594 13.12117187 11.27617188 13.24234375 11.93359375 13.3671875 C13.17302734 13.61855469 13.17302734 13.61855469 14.4375 13.875 C15.26121094 14.03742187 16.08492187 14.19984375 16.93359375 14.3671875 C17.61550781 14.57601563 18.29742187 14.78484375 19 15 C19.33 15.66 19.66 16.32 20 17 C13.4 17.33 6.8 17.66 0 18 C0 12.06 0 6.12 0 0 Z " fill="#F8FAFA" transform="translate(33,0)"/>
<path d="M0 0 C0.33 5.94 0.66 11.88 1 18 C-0.98 18 -2.96 18 -5 18 C-5.33 17.67 -5.66 17.34 -6 17 C-8.33297433 16.95907063 -10.66705225 16.95758277 -13 17 C-12.66226563 16.29488281 -12.32453125 15.58976563 -11.9765625 14.86328125 C-10.87375701 11.62985554 -10.96898518 9.55742298 -11.375 6.1875 C-11.48585938 5.21167969 -11.59671875 4.23585938 -11.7109375 3.23046875 C-11.80632812 2.49441406 -11.90171875 1.75835937 -12 1 C-9 0 -9 0 0 0 Z " fill="#F6FAF8" transform="translate(110,0)"/>
<path d="M0 0 C1.93742341 -0.02703381 3.87495479 -0.04641125 5.8125 -0.0625 C6.89144531 -0.07410156 7.97039062 -0.08570313 9.08203125 -0.09765625 C12 0 12 0 15 1 C16.89470816 1.0685495 18.7916834 1.08480372 20.6875 1.0625 C21.68136719 1.05347656 22.67523438 1.04445312 23.69921875 1.03515625 C24.45847656 1.02355469 25.21773437 1.01195313 26 1 C26 3.31 26 5.62 26 8 C23.36 7.67 20.72 7.34 18 7 C17.67 7.66 17.34 8.32 17 9 C17 8.34 17 7.68 17 7 C13.23699626 5.74566542 9.72789091 5.89304578 5.8125 5.9375 C4.68811523 5.94426758 4.68811523 5.94426758 3.54101562 5.95117188 C1.69397617 5.96293646 -0.15302213 5.98087135 -2 6 C-2 4.68 -2 3.36 -2 2 C-1.34 2 -0.68 2 0 2 C0 1.34 0 0.68 0 0 Z " fill="#F9F9F5" transform="translate(226,0)"/>
<path d="M0 0 C0.87785156 0.00515625 1.75570312 0.0103125 2.66015625 0.015625 C3.53542969 0.01046875 4.41070312 0.0053125 5.3125 0 C7.72265625 0.265625 7.72265625 0.265625 10.72265625 2.265625 C11.09765625 5.265625 11.09765625 5.265625 10.72265625 8.265625 C7.37684546 10.49616553 6.08255814 10.56245628 2.16015625 10.578125 C1.18949219 10.59488281 0.21882812 10.61164062 -0.78125 10.62890625 C-1.60496094 10.50902344 -2.42867187 10.38914062 -3.27734375 10.265625 C-5.27734375 7.265625 -5.27734375 7.265625 -5.02734375 4.703125 C-4.06763476 1.58407077 -3.32331625 0.38762522 0 0 Z " fill="#2A537B" transform="translate(160.27734375,3.734375)"/>
<path d="M0 0 C1.0725 0.00515625 2.145 0.0103125 3.25 0.015625 C4.85875 0.00789062 4.85875 0.00789062 6.5 0 C9.25 0.265625 9.25 0.265625 11.25 2.265625 C10.875 5.890625 10.875 5.890625 10.25 9.265625 C6.19020228 10.24981839 2.42300608 10.49745867 -1.75 10.265625 C-2.74 9.605625 -3.73 8.945625 -4.75 8.265625 C-5.0625 5.265625 -5.0625 5.265625 -4.75 2.265625 C-2.75 0.265625 -2.75 0.265625 0 0 Z " fill="#137ECC" transform="translate(86.75,3.734375)"/>
<path d="M0 0 C0.9590625 -0.02835937 1.918125 -0.05671875 2.90625 -0.0859375 C5.5 0.375 5.5 0.375 7.375 2.23046875 C8.5 4.375 8.5 4.375 8 7.0625 C6.5 9.375 6.5 9.375 4.3125 10.1875 C3.384375 10.249375 2.45625 10.31125 1.5 10.375 C-0.294375 10.49875 -0.294375 10.49875 -2.125 10.625 C-5.5 10.375 -5.5 10.375 -7.4375 9.1875 C-8.87794659 6.73026759 -8.9305182 5.17336832 -8.5 2.375 C-5.18400876 0.16433917 -3.88725511 0.05224805 0 0 Z " fill="#ECA12D" transform="translate(53.5,3.625)"/>
<path d="M0 0 C5.61 0 11.22 0 17 0 C16.67 1.32 16.34 2.64 16 4 C18.97 4.495 18.97 4.495 22 5 C21.67 5.99 21.34 6.98 21 8 C18.36 8.33 15.72 8.66 13 9 C12.67 8.34 12.34 7.68 12 7 C11.67 8.98 11.34 10.96 11 13 C8.69 13 6.38 13 4 13 C4.66 12.67 5.32 12.34 6 12 C5.67 11.401875 5.34 10.80375 5 10.1875 C4 8 4 8 4 5 C4.804375 4.87625 5.60875 4.7525 6.4375 4.625 C7.283125 4.41875 8.12875 4.2125 9 4 C9.33 3.34 9.66 2.68 10 2 C6.7 1.67 3.4 1.34 0 1 C0 0.67 0 0.34 0 0 Z " fill="#D8D8D8" transform="translate(340,0)"/>
<path d="M0 0 C2.97 0 5.94 0 9 0 C9 1.32 9 2.64 9 4 C10.65 4 12.3 4 14 4 C14 6.31 14 8.62 14 11 C7.73 11 1.46 11 -5 11 C-5 10.67 -5 10.34 -5 10 C-0.71 9.01 3.58 8.02 8 7 C8 6.01 8 5.02 8 4 C5.69 4 3.38 4 1 4 C0.67 2.68 0.34 1.36 0 0 Z " fill="#DB9153" transform="translate(202,6)"/>
<path d="M0 0 C2.31 0.66 4.62 1.32 7 2 C7 2.99 7 3.98 7 5 C7.66 4.01 8.32 3.02 9 2 C9.99 2 10.98 2 12 2 C12.33 3.98 12.66 5.96 13 8 C11.23186888 8.24915939 9.46025018 8.47366632 7.6875 8.6875 C6.70136719 8.81511719 5.71523438 8.94273438 4.69921875 9.07421875 C2 9 2 9 0.14453125 7.51953125 C-0.23316406 7.01808594 -0.61085938 6.51664063 -1 6 C-1.33 6.66 -1.66 7.32 -2 8 C-2.99 8 -3.98 8 -5 8 C-5.33 6.02 -5.66 4.04 -6 2 C-5.01 2.33 -4.02 2.66 -3 3 C-2.01 2.01 -1.02 1.02 0 0 Z " fill="#7F81A1" transform="translate(14,4)"/>
<path d="M0 0 C1.65 0 3.3 0 5 0 C5.33 0.33 5.66 0.66 6 1 C7.32594105 1.36162029 8.65938457 1.69728039 10 2 C10 2.99 10 3.98 10 5 C8.35 5.33 6.7 5.66 5 6 C5.01160156 6.61488281 5.02320313 7.22976562 5.03515625 7.86328125 C5.04417969 8.67152344 5.05320312 9.47976563 5.0625 10.3125 C5.07410156 11.11300781 5.08570313 11.91351563 5.09765625 12.73828125 C5 15 5 15 4 18 C2.68 18 1.36 18 0 18 C0 12.06 0 6.12 0 0 Z " fill="#FAFCFC" transform="translate(253,0)"/>
<path d="M0 0 C0 5.28 0 10.56 0 16 C-1.98 16 -3.96 16 -6 16 C-5.979375 14.783125 -5.95875 13.56625 -5.9375 12.3125 C-5.91909257 9.70784852 -6.0628744 7.74278654 -6.6875 5.1875 C-7 3 -7 3 -5.8125 1.1875 C-4 0 -4 0 0 0 Z " fill="#FBFAFA" transform="translate(32,1)"/>
<path d="M0 0 C7.59 0 15.18 0 23 0 C23.33 1.32 23.66 2.64 24 4 C20.375 7 20.375 7 17 7 C17 6.34 17 5.68 17 5 C16.01 4.67 15.02 4.34 14 4 C14.33 3.34 14.66 2.68 15 2 C10.38 2 5.76 2 1 2 C1.33 3.98 1.66 5.96 2 8 C1.85881857 10.72343527 1.4193416 13.29757633 1 16 C0.67 16 0.34 16 0 16 C0 10.72 0 5.44 0 0 Z " fill="#EEEEEE" transform="translate(298,0)"/>
<path d="M0 0 C4.62 0 9.24 0 14 0 C14 2.97 14 5.94 14 9 C13.67 7.68 13.34 6.36 13 5 C8.71 5 4.42 5 0 5 C0 3.35 0 1.7 0 0 Z " fill="#1D7EB3" transform="translate(120,2)"/>
<path d="M0 0 C1.67542976 0.28604898 3.34385343 0.61781233 5 1 C5.82622671 6.60563042 6.06795656 11.42289352 5 17 C3.35 17 1.7 17 0 17 C0.66 14.69 1.32 12.38 2 10 C-1.3 10 -4.6 10 -8 10 C-7.34 9.67 -6.68 9.34 -6 9 C-5.67 8.34 -5.34 7.68 -5 7 C-3.8553125 7.2475 -3.8553125 7.2475 -2.6875 7.5 C0.03596236 8.09145396 0.03596236 8.09145396 3 8 C3 7.01 3 6.02 3 5 C2.01 4.67 1.02 4.34 0 4 C-0.33 3.01 -0.66 2.02 -1 1 C-0.67 0.67 -0.34 0.34 0 0 Z " fill="#FBFBFB" transform="translate(370,0)"/>
<path d="M0 0 C0.33 0.33 0.66 0.66 1 1 C0.71269945 3.33944736 0.38063221 5.6739143 0 8 C-4.75 9.125 -4.75 9.125 -7 8 C-7 5.36 -7 2.72 -7 0 C-4.31633121 -1.3418344 -2.84719317 -0.73004953 0 0 Z " fill="#BF382B" transform="translate(97,5)"/>
<path d="M0 0 C0.99 0 1.98 0 3 0 C3 0.99 3 1.98 3 3 C6.63 3 10.26 3 14 3 C14 4.32 14 5.64 14 7 C9.38 7 4.76 7 0 7 C0 4.69 0 2.38 0 0 Z " fill="#0877BA" transform="translate(120,9)"/>
<path d="M0 0 C0 3.3 0 6.6 0 10 C-4.75 9.25 -4.75 9.25 -7 7 C-7.3125 4.5 -7.3125 4.5 -7 2 C-4 0 -4 0 0 0 Z " fill="#CA0904" transform="translate(52,4)"/>
<path d="M0 0 C4.95 0 9.9 0 15 0 C15 5.28 15 10.56 15 16 C14.67 16 14.34 16 14 16 C14 14.02 14 12.04 14 10 C12.35 10.66 10.7 11.32 9 12 C7 10 7 10 6 7 C11.75 6.875 11.75 6.875 14 8 C14 5.69 14 3.38 14 1 C11.69 1 9.38 1 7 1 C6.67 1.66 6.34 2.32 6 3 C6 2.34 6 1.68 6 1 C4.35 1.33 2.7 1.66 1 2 C0.67 1.34 0.34 0.68 0 0 Z " fill="#EEEDED" transform="translate(238,0)"/>
<path d="M0 0 C4.29 0 8.58 0 13 0 C13.33 1.65 13.66 3.3 14 5 C10.62694576 6.12435141 8.4321129 5.75339064 5 5 C3.3337447 4.9629721 1.66598681 4.95240038 0 5 C0 3.35 0 1.7 0 0 Z " fill="#9A9794" transform="translate(187,5)"/>
<path d="M0 0 C3.96 0 7.92 0 12 0 C11.67 0.66 11.34 1.32 11 2 C10.34 1.67 9.68 1.34 9 1 C9.33 1.70125 9.66 2.4025 10 3.125 C11.10123871 6.29106128 11.22195686 8.67064704 11 12 C10.67 12.66 10.34 13.32 10 14 C9.01 13.67 8.02 13.34 7 13 C7.33 10.69 7.66 8.38 8 6 C7.236875 5.855625 6.47375 5.71125 5.6875 5.5625 C3 5 3 5 0 4 C1.98 3.34 3.96 2.68 6 2 C4.02 2 2.04 2 0 2 C0 1.34 0 0.68 0 0 Z " fill="#F2EBF2" transform="translate(89,0)"/>
<path d="M0 0 C-0.66 1.32 -1.32 2.64 -2 4 C-5.96 4 -9.92 4 -14 4 C-14 2.68 -14 1.36 -14 0 C-9.20699867 -1.39151652 -4.84864218 -0.68662689 0 0 Z " fill="#FAFBFC" transform="translate(24,13)"/>
<path d="M0 0 C2.64 0.33 5.28 0.66 8 1 C7.67 1.66 7.34 2.32 7 3 C9.31 3 11.62 3 14 3 C14 3.66 14 4.32 14 5 C5.09 5 -3.82 5 -13 5 C-13 4.67 -13 4.34 -13 4 C-6.565 3.505 -6.565 3.505 0 3 C0 2.01 0 1.02 0 0 Z " fill="#EEEFEE" transform="translate(91,13)"/>
<path d="M0 0 C1.9453125 -0.29296875 1.9453125 -0.29296875 4.125 -0.1875 C5.40375 -0.125625 6.6825 -0.06375 8 0 C7.625 2.4375 7.625 2.4375 7 5 C6.01 5.495 6.01 5.495 5 6 C4.01 5.67 3.02 5.34 2 5 C1.67 5.66 1.34 6.32 1 7 C1 6.34 1 5.68 1 5 C-0.65 5 -2.3 5 -4 5 C-3.34 4.34 -2.68 3.68 -2 3 C-1.34 2.01 -0.68 1.02 0 0 Z " fill="#F6F6F6" transform="translate(357,0)"/>
<path d="M0 0 C0.598125 0.226875 1.19625 0.45375 1.8125 0.6875 C2.4375 3.0625 2.4375 3.0625 2.8125 5.6875 C2.1525 6.3475 1.4925 7.0075 0.8125 7.6875 C-1.8125 7.3125 -1.8125 7.3125 -4.1875 6.6875 C-4.875 4.875 -4.875 4.875 -5.1875 2.6875 C-3.58493056 0.24147296 -2.95482043 -0.4221172 0 0 Z " fill="#BFD3DF" transform="translate(161.1875,5.3125)"/>
<path d="M0 0 C-3.00419641 1.0013988 -5.87709365 1.51421457 -9 2 C-9.20086443 5.71599191 -9.1519437 6.77208445 -7 10 C-9.31 9.67 -11.62 9.34 -14 9 C-13.690625 8.278125 -13.38125 7.55625 -13.0625 6.8125 C-12.07439461 4.19692691 -11.4712246 1.74881018 -11 -1 C-6.70700357 -2.26264601 -4.12168689 -1.62950412 0 0 Z " fill="#FBE0DC" transform="translate(55,4)"/>
<path d="M0 0 C1.60407328 -0.02708567 3.2082785 -0.04643483 4.8125 -0.0625 C5.70582031 -0.07410156 6.59914063 -0.08570313 7.51953125 -0.09765625 C10 0 10 0 13 1 C13.33 1.99 13.66 2.98 14 4 C10.37 4 6.74 4 3 4 C3 3.01 3 2.02 3 1 C2.01 0.67 1.02 0.34 0 0 Z " fill="#A9D7E9" transform="translate(120,8)"/>
<path d="M0 0 C3.96 0 7.92 0 12 0 C9 2 9 2 6 2 C6.99 3.485 6.99 3.485 8 5 C8 5.99 8 6.98 8 8 C6.02 8.33 4.04 8.66 2 9 C2 7.68 2 6.36 2 5 C2.66 4.67 3.32 4.34 4 4 C3.04134491 1.66924071 3.04134491 1.66924071 0 0 Z " fill="#EEEEEE" transform="translate(321,0)"/>
<path d="M0 0 C2.97 0 5.94 0 9 0 C9 1.32 9 2.64 9 4 C10.65 4 12.3 4 14 4 C11 6 11 6 8 7 C8 6.01 8 5.02 8 4 C5.69 4 3.38 4 1 4 C0.67 2.68 0.34 1.36 0 0 Z " fill="#DFDED4" transform="translate(202,6)"/>
<path d="M0 0 C2.29013653 3.4352048 2.17842973 4.985331 2 9 C0.35 8.67 -1.3 8.34 -3 8 C-3.33 5.69 -3.66 3.38 -4 1 C-2 0 -2 0 0 0 Z " fill="#0F0F0F" transform="translate(265,4)"/>
<path d="M0 0 C1.32 0 2.64 0 4 0 C4 1.32 4 2.64 4 4 C5.65 4.33 7.3 4.66 9 5 C6.66785852 6.20628008 4.50357861 7.1654738 2 8 C1.01 8.495 1.01 8.495 0 9 C-0.66 8.01 -1.32 7.02 -2 6 C-2.66 5.67 -3.32 5.34 -4 5 C-2.35 4.67 -0.7 4.34 1 4 C0.67 2.68 0.34 1.36 0 0 Z " fill="#EFE6D8" transform="translate(201,0)"/>
<path d="M0 0 C5.28 0 10.56 0 16 0 C15.67 0.99 15.34 1.98 15 3 C12.1875 3.625 12.1875 3.625 9 4 C8.01 3.34 7.02 2.68 6 2 C2.85778033 2.31506627 2.85778033 2.31506627 0 3 C0 2.01 0 1.02 0 0 Z " fill="#A5A5A5" transform="translate(353,10)"/>
<path d="M0 0 C1.65 0 3.3 0 5 0 C5 0.99 5 1.98 5 3 C4.01 3.33 3.02 3.66 2 4 C2.639375 4.103125 3.27875 4.20625 3.9375 4.3125 C4.618125 4.539375 5.29875 4.76625 6 5 C6.33 5.99 6.66 6.98 7 8 C5.0085944 8.38133299 3.00720923 8.71325582 1 9 C0 8 0 8 -0.09765625 6.15234375 C-0.06510417 4.1015625 -0.03255208 2.05078125 0 0 Z " fill="#B6B6B6" transform="translate(310,5)"/>
<path d="M0 0 C0.66 1.32 1.32 2.64 2 4 C-1.625 7 -1.625 7 -5 7 C-5 6.34 -5 5.68 -5 5 C-5.99 4.67 -6.98 4.34 -8 4 C-7.67 3.34 -7.34 2.68 -7 2 C-4.6859378 1.26924352 -2.35171131 0.59861742 0 0 Z " fill="#F7F7F7" transform="translate(320,0)"/>
<path d="M0 0 C1.98 0 3.96 0 6 0 C5.6875 1.9375 5.6875 1.9375 5 4 C4.01 4.33 3.02 4.66 2 5 C1.34 5.66 0.68 6.32 0 7 C0 6.34 0 5.68 0 5 C-1.65 5 -3.3 5 -5 5 C-3.74458443 2.48916886 -2.49936512 2.12874554 0 1 C0 0.67 0 0.34 0 0 Z " fill="#F2F2F2" transform="translate(316,5)"/>
<path d="M0 0 C0.5534764 2.07553648 1 3.84365964 1 6 C4.62528568 6.20140476 6.86501708 5.85776765 10 4 C10.66 5.32 11.32 6.64 12 8 C10.20906809 8.08086147 8.41710372 8.13912702 6.625 8.1875 C5.12839844 8.23970703 5.12839844 8.23970703 3.6015625 8.29296875 C2.74304688 8.19628906 1.88453125 8.09960938 1 8 C-1 5 -1 5 -0.625 2.3125 C-0.41875 1.549375 -0.2125 0.78625 0 0 Z " fill="#546578" transform="translate(156,6)"/>
<path d="M0 0 C2.64 0.33 5.28 0.66 8 1 C8.33 2.32 8.66 3.64 9 5 C7 5 5 5 3 5 C3 4.34 3 3.68 3 3 C2.01 3 1.02 3 0 3 C-0.33 3.66 -0.66 4.32 -1 5 C-0.67 3.35 -0.34 1.7 0 0 Z " fill="#767796" transform="translate(235,6)"/>
<path d="M0 0 C1.32 0.66 2.64 1.32 4 2 C3.5020163 5.73487777 3.12508244 7.81237635 1 11 C0.34 9.68 -0.32 8.36 -1 7 C-0.34 7 0.32 7 1 7 C0.73323796 5.01508358 0.73323796 5.01508358 0 3 C-0.99 2.67 -1.98 2.34 -3 2 C-2.01 1.34 -1.02 0.68 0 0 Z " fill="#F5F6FB" transform="translate(20,0)"/>
<path d="M0 0 C2.64 0 5.28 0 8 0 C8 1.32 8 2.64 8 4 C5.36 4 2.72 4 0 4 C0 2.68 0 1.36 0 0 Z " fill="#BFBFBF" transform="translate(270,4)"/>
<path d="M0 0 C3.96 0 7.92 0 12 0 C11.67 0.99 11.34 1.98 11 3 C7.37 3 3.74 3 0 3 C0 2.01 0 1.02 0 0 Z " fill="#A6A6A6" transform="translate(318,10)"/>
<path d="M0 0 C1.32 0 2.64 0 4 0 C4.33 1.32 4.66 2.64 5 4 C4.34 4 3.68 4 3 4 C3 4.99 3 5.98 3 7 C3.99 7.33 4.98 7.66 6 8 C5.01 8.495 5.01 8.495 4 9 C1.4375 6.75 1.4375 6.75 -1 4 C-0.8125 1.6875 -0.8125 1.6875 0 0 Z " fill="#AFAFAF" transform="translate(304,6)"/>
<path d="M0 0 C5.94 0 11.88 0 18 0 C17.01 0.33 16.02 0.66 15 1 C14.67 1.66 14.34 2.32 14 3 C14 2.34 14 1.68 14 1 C13.34 1 12.68 1 12 1 C11.67 1.66 11.34 2.32 11 3 C8.9375 3.625 8.9375 3.625 7 4 C6.67 3.34 6.34 2.68 6 2 C2.97065509 1.34227572 2.97065509 1.34227572 0 1 C0 0.67 0 0.34 0 0 Z " fill="#EFF1EC" transform="translate(159,0)"/>
<path d="M0 0 C0.99 0 1.98 0 3 0 C3 0.99 3 1.98 3 3 C2.34 3 1.68 3 1 3 C1 3.99 1 4.98 1 6 C4.96 6 8.92 6 13 6 C13.33 5.01 13.66 4.02 14 3 C14 4.32 14 5.64 14 7 C9.38 7 4.76 7 0 7 C0 4.69 0 2.38 0 0 Z " fill="#2476A7" transform="translate(120,9)"/>
<path d="M0 0 C7.625 0.875 7.625 0.875 11 2 C10.67 2.66 10.34 3.32 10 4 C6.7 4 3.4 4 0 4 C0 2.68 0 1.36 0 0 Z " fill="#A2A2A2" transform="translate(270,9)"/>
<path d="M0 0 C1.62490954 -0.02698189 3.24994633 -0.04638757 4.875 -0.0625 C5.77992188 -0.07410156 6.68484375 -0.08570313 7.6171875 -0.09765625 C10 0 10 0 12 1 C11.67 1.99 11.34 2.98 11 4 C10.67 3.67 10.34 3.34 10 3 C9.34 3.66 8.68 4.32 8 5 C8 4.34 8 3.68 8 3 C5.03 2.67 2.06 2.34 -1 2 C-0.67 1.34 -0.34 0.68 0 0 Z " fill="#31506B" transform="translate(158,4)"/>
<path d="M0 0 C0.598125 0.350625 1.19625 0.70125 1.8125 1.0625 C1.8125 3.0425 1.8125 5.0225 1.8125 7.0625 C0.8225 7.3925 -0.1675 7.7225 -1.1875 8.0625 C-1.1875 6.4125 -1.1875 4.7625 -1.1875 3.0625 C-2.5075 2.7325 -3.8275 2.4025 -5.1875 2.0625 C-5.1875 1.4025 -5.1875 0.7425 -5.1875 0.0625 C-2.1875 -0.9375 -2.1875 -0.9375 0 0 Z " fill="#FCFAFE" transform="translate(103.1875,0.9375)"/>
<path d="M0 0 C0.598125 0.20625 1.19625 0.4125 1.8125 0.625 C-0.1675 1.615 -0.1675 1.615 -2.1875 2.625 C-1.91715366 5.06217258 -1.91715366 5.06217258 -1.1875 7.625 C-0.1975 8.285 0.7925 8.945 1.8125 9.625 C-2.9375 8.875 -2.9375 8.875 -5.1875 6.625 C-5.5 4.125 -5.5 4.125 -5.1875 1.625 C-2.1875 -0.375 -2.1875 -0.375 0 0 Z " fill="#AD1A1F" transform="translate(50.1875,4.375)"/>
<path d="M0 0 C3.15473719 0.35052635 4.8233534 0.86519076 7.375 2.8125 C9 5 9 5 9.0625 7.125 C7.57059388 9.7577755 5.81862363 10.13273119 3 11 C3.37125 10.071875 3.7425 9.14375 4.125 8.1875 C4.41375 7.135625 4.7025 6.08375 5 5 C3.16666667 1.83333333 3.16666667 1.83333333 0 0 Z " fill="#FDEDC6" transform="translate(56,3)"/>
<path d="M0 0 C2.64 0 5.28 0 8 0 C8 0.99 8 1.98 8 3 C5.69 3.33 3.38 3.66 1 4 C0.67 2.68 0.34 1.36 0 0 Z " fill="#B0B0B0" transform="translate(365,5)"/>
<path d="M0 0 C5.75 -0.125 5.75 -0.125 8 1 C8 1.66 8 2.32 8 3 C6.35 3.66 4.7 4.32 3 5 C1 3 1 3 0 0 Z " fill="#C8C8B8" transform="translate(244,7)"/>
<path d="M0 0 C1.98 0 3.96 0 6 0 C5.01 0.33 4.02 0.66 3 1 C3 1.99 3 2.98 3 4 C3.66 4 4.32 4 5 4 C5.33 4.99 5.66 5.98 6 7 C4.02 7 2.04 7 0 7 C0.66 6.67 1.32 6.34 2 6 C1.34 4.02 0.68 2.04 0 0 Z " fill="#535353" transform="translate(344,6)"/>
<path d="M0 0 C0.99 0 1.98 0 3 0 C3.33 1.98 3.66 3.96 4 6 C2.02 6 0.04 6 -2 6 C-1.34 4.02 -0.68 2.04 0 0 Z " fill="#4B4A75" transform="translate(23,6)"/>
<path d="M0 0 C2.30441554 3.45662331 2.25860135 4.94857881 2 9 C1.67 9.66 1.34 10.32 1 11 C0.01 10.67 -0.98 10.34 -2 10 C-1.814375 8.88625 -1.62875 7.7725 -1.4375 6.625 C-0.68319343 3.17431139 -0.68319343 3.17431139 -2 1 C-1.34 0.67 -0.68 0.34 0 0 Z " fill="#FBE0CD" transform="translate(98,3)"/>
<path d="M0 0 C0.66 0.33 1.32 0.66 2 1 C2 3.64 2 6.28 2 9 C0.35 9.33 -1.3 9.66 -3 10 C-2.01 9.67 -1.02 9.34 0 9 C-0.185625 8.2575 -0.37125 7.515 -0.5625 6.75 C-0.99203108 4.05009037 -0.85122974 2.55368923 0 0 Z " fill="#3465C2" transform="translate(88,4)"/>
<path d="M0 0 C4 0 4 0 5.75 1.375 C7 3 7 3 7 5 C2.25 5.125 2.25 5.125 0 4 C0 2.68 0 1.36 0 0 Z " fill="#76779A" transform="translate(226,6)"/>
<path d="M0 0 C-1.25 1.5625 -1.25 1.5625 -3 3 C-5.97332891 2.71225849 -8.38809637 1.39923409 -11 0 C-7.18243176 -1.37432457 -3.92744671 -0.67975039 0 0 Z " fill="#FEF3DB" transform="translate(59,14)"/>
<path d="M0 0 C0.66 0 1.32 0 2 0 C2.33 0.66 2.66 1.32 3 2 C3.66 2 4.32 2 5 2 C5 3.32 5 4.64 5 6 C3.35 6.33 1.7 6.66 0 7 C0 4.69 0 2.38 0 0 Z " fill="#FA9313" transform="translate(54,6)"/>
<path d="M0 0 C2.64 0.33 5.28 0.66 8 1 C7.01 2.485 7.01 2.485 6 4 C2.875 4.1875 2.875 4.1875 0 4 C0 2.68 0 1.36 0 0 Z " fill="#F9F5EE" transform="translate(91,13)"/>
<path d="M0 0 C0.33 1.32 0.66 2.64 1 4 C-1.70879335 5.35439668 -4.00933268 5.06501451 -7 5 C-7 4.34 -7 3.68 -7 3 C-5.35 3 -3.7 3 -2 3 C-2 2.34 -2 1.68 -2 1 C-1.34 0.67 -0.68 0.34 0 0 Z " fill="#E4E4E4" transform="translate(363,5)"/>
<path d="M0 0 C0.66 0.33 1.32 0.66 2 1 C2 2.32 2 3.64 2 5 C0.68 5.33 -0.64 5.66 -2 6 C-2 5.01 -2 4.02 -2 3 C-2.66 2.67 -3.32 2.34 -4 2 C-2.125 0.9375 -2.125 0.9375 0 0 Z " fill="#E1B88C" transform="translate(199,5)"/>
<path d="M0 0 C2.31 0 4.62 0 7 0 C7 0.99 7 1.98 7 3 C4.36 3 1.72 3 -1 3 C-0.67 2.01 -0.34 1.02 0 0 Z " fill="#9F9F9F" transform="translate(282,10)"/>
<path d="M0 0 C2.64 0 5.28 0 8 0 C8 0.99 8 1.98 8 3 C6.824375 2.9690625 6.824375 2.9690625 5.625 2.9375 C3.01885039 2.81315937 3.01885039 2.81315937 1 4 C0.67 2.68 0.34 1.36 0 0 Z " fill="#78726F" transform="translate(202,6)"/>
<path d="M0 0 C0.99 0 1.98 0 3 0 C3 1.65 3 3.3 3 5 C0.03 4.505 0.03 4.505 -3 4 C-1.6875 2 -1.6875 2 0 0 Z " fill="#D4D4D4" transform="translate(369,10)"/>
<path d="M0 0 C0 2.31 0 4.62 0 7 C-0.66 6.67 -1.32 6.34 -2 6 C-2 5.34 -2 4.68 -2 4 C-2.66 4 -3.32 4 -4 4 C-4 3.01 -4 2.02 -4 1 C-1 0 -1 0 0 0 Z " fill="#A0A0A0" transform="translate(351,6)"/>
<path d="M0 0 C0.33 0.99 0.66 1.98 1 3 C-0.9375 5.6875 -0.9375 5.6875 -3 8 C-3.33 5.69 -3.66 3.38 -4 1 C-2 0 -2 0 0 0 Z " fill="#626262" transform="translate(265,4)"/>
<path d="M0 0 C1.98 0 3.96 0 6 0 C6 0.99 6 1.98 6 3 C4.02 3.33 2.04 3.66 0 4 C0 2.68 0 1.36 0 0 Z " fill="#ABABAB" transform="translate(323,5)"/>
<path d="M0 0 C0.66 0 1.32 0 2 0 C2.79953138 3.28696233 3.09658936 4.71023192 2 8 C1.34 8 0.68 8 0 8 C0 5.36 0 2.72 0 0 Z " fill="#E16829" transform="translate(52,5)"/>
<path d="M0 0 C1.32 0.33 2.64 0.66 4 1 C3.67 2.65 3.34 4.3 3 6 C2.01 5.67 1.02 5.34 0 5 C0 3.33333333 0 1.66666667 0 0 Z " fill="#33355F" transform="translate(17,6)"/>
<path d="M0 0 C1.98 0 3.96 0 6 0 C5.67 1.32 5.34 2.64 5 4 C3.35 3.67 1.7 3.34 0 3 C0 2.01 0 1.02 0 0 Z " fill="#B6B6B6" transform="translate(316,5)"/>
<path d="M0 0 C1.65 0 3.3 0 5 0 C4.67 0.99 4.34 1.98 4 3 C4 3.99 4 4.98 4 6 C2.68 5.34 1.36 4.68 0 4 C0.33 3.34 0.66 2.68 1 2 C0.67 1.67 0.34 1.34 0 1 C0 0.67 0 0.34 0 0 Z " fill="#E6EAED" transform="translate(153,0)"/>
</svg>
